<svg xmlns="http://www.w3.org/2000/svg" class="A" id="A" viewBox="0 0 500 500" xmlns:v="https://vecta.io/nano"><style><![CDATA[svg#A.A #B{animation:1s 1 forwards cubic-bezier(.36,-0.01,.5,1.38) lightSpeedLeft;animation-delay:0s}svg#A.A #C{animation:1s 1 forwards cubic-bezier(.36,-0.01,.5,1.38) slideUp;animation-delay:0s}svg#A.A #D{animation:1s 1 forwards cubic-bezier(.36,-0.01,.5,1.38) slideUp;animation-delay:0s}svg#A.A #E{animation:1s 1 forwards cubic-bezier(.36,-0.01,.5,1.38) zoomOut,1.5s Infinite  linear shake;animation-delay:0s,1s}svg#A.A #F{animation:1s 1 forwards cubic-bezier(.36,-0.01,.5,1.38) slideUp;animation-delay:0s}svg#A.A #G{animation:1s 1 forwards cubic-bezier(.36,-0.01,.5,1.38) slideRight;animation-delay:0s}svg#A.A #H{animation:1s 1 forwards cubic-bezier(.36,-0.01,.5,1.38) slideDown;animation-delay:0s}svg#A.A #I{animation:1s 1 forwards cubic-bezier(.36,-0.01,.5,1.38) slideUp;animation-delay:0s}svg#A.A #J{animation:1s 1 forwards cubic-bezier(.36,-0.01,.5,1.38) lightSpeedRight;animation-delay:0s}@keyframes lightSpeedLeft{from{transform:translate3d(-50%, 0, 0) skewX(20deg);opacity:0}60%{transform:skewX(-10deg);opacity:1}80%{transform:skewX(2deg)}to{opacity:1;transform:translate3d(0, 0, 0)}} @keyframes slideUp{0%{opacity:0;transform:translateY(30px)}100%{opacity:1;transform:inherit}} @keyframes zoomOut{0%{opacity:0;transform:scale(1.5)}100%{opacity:1;transform:scale(1)}} @keyframes shake{10%,90%{transform:translate3d(-1px, 0, 0)}20%,80%{transform:translate3d(2px, 0, 0)}30%,50%,70%{transform:translate3d(-4px, 0, 0)}40%,60%{transform:translate3d(4px, 0, 0)}} @keyframes slideRight{0%{opacity:0;transform:translateX(30px)}100%{opacity:1;transform:translateX(0)}} @keyframes slideDown{0%{opacity:0;transform:translateY(-30px)}100%{opacity:1;transform:translateY(0)}} @keyframes lightSpeedRight{from{transform:translate3d(50%, 0, 0) skewX(-20deg);opacity:0}60%{transform:skewX(10deg);opacity:1}80%{transform:skewX(-2deg)}to{opacity:1;transform:translate3d(0, 0, 0)}}.C{opacity:.1}.D{fill:#4e84fb}.E{fill:#263238}.F{stroke-miterlimit:10}.G{fill:none}.H{fill:#37474f}.I{fill:#455a64}.J{stroke:#ebebeb}.K{stroke-width:.75}.L{fill:#ebebeb}.M{stroke:#c7c7c7}.N{fill:#dbdbdb}.O{fill:#c7c7c7}]]></style><g id="B" class="B" transform-origin="250px 210.77px"><g class="F G J K"><path d="M417.41 60.85h26.48v11.19h-26.48z" transform-origin="430.65px 66.445px" transform="rotate(180)"/></g><g class="F G J K"><path d="M432.18 46.74h26.48v11.19h-26.48z" transform-origin="445.42px 52.335px" transform="rotate(180)"/></g><g class="F G J K"><path d="M250 170.97h26.48v11.19H250z" transform-origin="263.24px 176.565px" transform="rotate(180)"/></g><g class="F G J K"><path d="M264.77 156.86h26.48v11.19h-26.48z" transform-origin="278.01px 162.455px" transform="rotate(180)"/></g><g class="F G J K"><path d="M279.49 170.97h26.48v11.19h-26.48z" transform-origin="292.73px 176.565px" transform="rotate(180)"/></g><g class="F G J K"><path d="M41.34 46.74h26.48v11.19H41.34z" transform-origin="54.58px 52.335px" transform="rotate(180)"/></g><g class="F G J K"><path d="M56.11 309.85h26.48v11.19H56.11z" transform-origin="69.35px 315.445px" transform="rotate(180)"/></g><g class="F G J K"><path d="M41.34 295.74h26.48v11.19H41.34z" transform-origin="54.58px 301.335px" transform="rotate(180)"/></g><g class="F G J K"><path d="M417.41 309.85h26.48v11.19h-26.48z" transform-origin="430.65px 315.445px" transform="rotate(180)"/></g><g class="G F"><g class="J"><path d="M208.82 421.54V295.88l26.73-36.49v-68.33" transform-origin="222.185px 306.3px"/><path d="M233.18 188.73a2.38 2.38 0 1 0 2.37-2.38 2.37 2.37 0 0 0-2.37 2.38z" transform-origin="235.56px 188.73px"/><path d="M215.71 421.54V300.29l26.73-36.49v-47.74" transform-origin="229.075px 318.8px"/><path d="M240.06 213.72a2.38 2.38 0 1 0 2.38-2.37 2.38 2.38 0 0 0-2.38 2.37z" transform-origin="242.44px 213.73px"/><path d="M202.19 421.54V255.13" transform-origin="202.19px 338.335px"/><path d="M199.81 252.75a2.38 2.38 0 1 0 2.38-2.37 2.38 2.38 0 0 0-2.38 2.37z" transform-origin="202.19px 252.76px"/><path d="M195.8 421.54v-84.58l-18.14-34.22v-61.37" transform-origin="186.73px 331.455px"/><path d="M175.28 239a2.38 2.38 0 1 0 2.38-2.38 2.37 2.37 0 0 0-2.38 2.38z" transform-origin="177.66px 239px"/><path d="M189.45 421.54v-80.92l-21.39-37.84v-40.41" transform-origin="178.755px 341.955px"/><path d="M165.68 260a2.38 2.38 0 1 0 2.38-2.37 2.39 2.39 0 0 0-2.38 2.37z" transform-origin="168.06px 260.01px"/></g><path class="M" d="M110.72 37.56V0" transform-origin="110.72px 18.78px"/></g><path class="L" d="M133.93 59.92l-1.87 4.11H89.38l-1.86-4.11 18.17-12.57h10.07l18.17 12.57z" transform-origin="110.725px 55.69px"/><g class="N"><path d="M117.02 35.23l-1.26 12.12h-10.07l-1.26-12.12h12.59z" transform-origin="110.725px 41.29px"/><path d="M133.93 59.93l-1.87 4.1H89.38l-1.86-4.1h46.41z" transform-origin="110.725px 61.98px"/></g><path class="F G M" d="M203.58 37.56V0" transform-origin="203.58px 18.78px"/><path class="L" d="M226.78 59.92l-1.87 4.11h-42.68l-1.86-4.11 18.17-12.57h10.07l18.17 12.57z" transform-origin="203.575px 55.69px"/><g class="N"><path d="M209.87 35.23l-1.26 12.12h-10.07l-1.26-12.12h12.59z" transform-origin="203.575px 41.29px"/><path d="M226.78 59.93l-1.87 4.1h-42.68l-1.86-4.1h46.41z" transform-origin="203.575px 61.98px"/></g><path class="F G M" d="M296.43 37.56V0" transform-origin="296.43px 18.78px"/><path class="L" d="M319.63 59.92l-1.86 4.11h-42.69l-1.86-4.11 18.17-12.57h10.07l18.17 12.57z" transform-origin="296.425px 55.69px"/><g class="N"><path d="M302.72 35.23l-1.26 12.12h-10.07l-1.26-12.12h12.59z" transform-origin="296.425px 41.29px"/><path d="M319.63 59.93l-1.87 4.1h-42.68l-1.86-4.1h46.41z" transform-origin="296.425px 61.98px"/></g><path class="F G M" d="M389.28 37.56V0" transform-origin="389.28px 18.78px"/><path class="L" d="M412.49 59.92l-1.87 4.11h-42.69l-1.86-4.11 18.18-12.57h10.06l18.18 12.57z" transform-origin="389.28px 55.69px"/><g class="N"><path d="M395.57 35.23l-1.26 12.12h-10.06l-1.27-12.12h12.59z" transform-origin="389.275px 41.29px"/><path d="M412.48 59.93l-1.86 4.1h-42.69l-1.86-4.1h46.41z" transform-origin="389.275px 61.98px"/></g></g><g id="C" class="B L" transform-origin="183.79px 443.41px"><ellipse cx="183.79" cy="443.41" rx="106.41" ry="16.99" transform-origin="183.79px 443.41px"/></g><g id="D" class="B" transform-origin="359.71px 295.225px"><path class="H" d="M267.37 176.42h65.02v245.17h-65.02z" transform-origin="299.88px 299.005px"/><path class="I" d="M332.39 176.42h119.66v245.17H332.39z" transform-origin="392.22px 299.005px"/><path class="H" d="M341.37 389.79h103.21v23.84H341.37z" transform-origin="392.975px 401.71px"/><g class="I"><path d="M345.71 393.73h58.75v2.01h-58.75z" transform-origin="375.085px 394.735px"/><path d="M345.71 397.22h58.75v2.01h-58.75z" transform-origin="375.085px 398.225px"/><path d="M345.71 400.71h58.75v2.01h-58.75z" transform-origin="375.085px 401.715px"/><path d="M345.71 404.19h58.75v2.01h-58.75z" transform-origin="375.085px 405.195px"/><path d="M345.71 407.68h58.75v2.01h-58.75z" transform-origin="375.085px 408.685px"/></g><g class="D"><path d="M415.17 395.73a2 2 0 1 1-2-2 2 2 0 0 1 2 2z" transform-origin="413.17px 395.73px"/><path d="M421.75 395.73a2 2 0 1 1-2-2 2 2 0 0 1 2 2z" transform-origin="419.75px 395.73px"/><path d="M428.33 395.73a2 2 0 1 1-2-2 2 2 0 0 1 2 2z" transform-origin="426.33px 395.73px"/><path d="M434.9 395.73a2 2 0 1 1-2-2 2 2 0 0 1 2 2z" transform-origin="432.9px 395.73px"/><path d="M441.48 395.73a2 2 0 1 1-2-2 2 2 0 0 1 2 2z" transform-origin="439.48px 395.73px"/><path d="M415.17 401.71a2 2 0 1 1-2-2 2 2 0 0 1 2 2z" transform-origin="413.17px 401.71px"/><path d="M421.75 401.71a2 2 0 1 1-2-2 2 2 0 0 1 2 2z" transform-origin="419.75px 401.71px"/><path d="M428.33 401.71a2 2 0 1 1-2-2 2 2 0 0 1 2 2z" transform-origin="426.33px 401.71px"/><path d="M434.9 401.71a2 2 0 1 1-2-2 2 2 0 0 1 2 2z" transform-origin="432.9px 401.71px"/><path d="M441.48 401.71a2 2 0 1 1-2-2 2 2 0 0 1 2 2z" transform-origin="439.48px 401.71px"/><circle cx="413.18" cy="407.7" r="2" transform-origin="413.18px 407.7px"/><path d="M421.75 407.7a2 2 0 1 1-2-2 2 2 0 0 1 2 2z" transform-origin="419.75px 407.7px"/><circle cx="426.33" cy="407.7" r="2" transform-origin="426.33px 407.7px"/><path d="M434.9 407.7a2 2 0 1 1-2-2 2 2 0 0 1 2 2z" transform-origin="432.9px 407.7px"/><path d="M441.48 407.7a2 2 0 1 1-2-2 2 2 0 0 1 2 2z" transform-origin="439.48px 407.7px"/></g><path class="E" d="M407.4 393.73h1.15v15.96h-1.15z" transform-origin="407.975px 401.71px"/><path class="H" d="M341.37 361.07h103.21v23.84H341.37z" transform-origin="392.975px 372.99px"/><g class="I"><path d="M345.71 365h58.75v2.01h-58.75z" transform-origin="375.085px 366.005px"/><path d="M345.71 368.49h58.75v2.01h-58.75z" transform-origin="375.085px 369.495px"/><path d="M345.71 371.98h58.75v2.01h-58.75z" transform-origin="375.085px 372.985px"/><path d="M345.71 375.47h58.75v2.01h-58.75z" transform-origin="375.085px 376.475px"/><path d="M345.71 378.95h58.75v2.01h-58.75z" transform-origin="375.085px 379.955px"/></g><g class="D"><path d="M415.17 367a2 2 0 1 1-2-2 2 2 0 0 1 2 2z" transform-origin="413.17px 367px"/><path d="M421.75 367a2 2 0 1 1-2-2 2 2 0 0 1 2 2z" transform-origin="419.75px 367px"/><path d="M428.33 367a2 2 0 1 1-2-2 2 2 0 0 1 2 2z" transform-origin="426.33px 367px"/><path d="M434.9 367a2 2 0 1 1-2-2 2 2 0 0 1 2 2z" transform-origin="432.9px 367px"/><path d="M441.48 367a2 2 0 1 1-2-2 2 2 0 0 1 2 2z" transform-origin="439.48px 367px"/><path d="M415.17 373a2 2 0 1 1-2-2 2 2 0 0 1 2 2z" transform-origin="413.17px 373px"/><path d="M421.75 373a2 2 0 1 1-2-2 2 2 0 0 1 2 2z" transform-origin="419.75px 373px"/><path d="M428.33 373a2 2 0 1 1-2-2 2 2 0 0 1 2 2z" transform-origin="426.33px 373px"/><path d="M434.9 373a2 2 0 1 1-2-2 2 2 0 0 1 2 2z" transform-origin="432.9px 373px"/><path d="M441.48 373a2 2 0 1 1-2-2 2 2 0 0 1 2 2z" transform-origin="439.48px 373px"/><path d="M415.17 379a2 2 0 1 1-2-2 2 2 0 0 1 2 2z" transform-origin="413.17px 379px"/><path d="M421.75 379a2 2 0 1 1-2-2 2 2 0 0 1 2 2z" transform-origin="419.75px 379px"/><path d="M428.33 379a2 2 0 1 1-2-2 2 2 0 0 1 2 2z" transform-origin="426.33px 379px"/><path d="M434.9 379a2 2 0 1 1-2-2 2 2 0 0 1 2 2z" transform-origin="432.9px 379px"/><path d="M441.48 379a2 2 0 1 1-2-2 2 2 0 0 1 2 2z" transform-origin="439.48px 379px"/></g><path class="E" d="M407.4 365h1.15v15.96h-1.15z" transform-origin="407.975px 372.98px"/><path class="H" d="M341.37 332.34h103.21v23.84H341.37z" transform-origin="392.975px 344.26px"/><g class="I"><path d="M345.71 336.28h58.75v2.01h-58.75z" transform-origin="375.085px 337.285px"/><path d="M345.71 339.76h58.75v2.01h-58.75z" transform-origin="375.085px 340.765px"/><path d="M345.71 343.25h58.75v2.01h-58.75z" transform-origin="375.085px 344.255px"/><path d="M345.71 346.74h58.75v2.01h-58.75z" transform-origin="375.085px 347.745px"/><path d="M345.71 350.23h58.75v2.01h-58.75z" transform-origin="375.085px 351.235px"/></g><g class="D"><circle cx="413.18" cy="338.27" r="2" transform-origin="413.18px 338.27px"/><path d="M421.75 338.27a2 2 0 1 1-2-2 2 2 0 0 1 2 2z" transform-origin="419.75px 338.27px"/><circle cx="426.33" cy="338.27" r="2" transform-origin="426.33px 338.27px"/><path d="M434.9 338.27a2 2 0 1 1-2-2 2 2 0 0 1 2 2z" transform-origin="432.9px 338.27px"/><path d="M441.48 338.27a2 2 0 1 1-2-2 2 2 0 0 1 2 2z" transform-origin="439.48px 338.27px"/><path d="M415.17 344.26a2 2 0 1 1-2-2 2 2 0 0 1 2 2z" transform-origin="413.17px 344.26px"/><path d="M421.75 344.26a2 2 0 1 1-2-2 2 2 0 0 1 2 2z" transform-origin="419.75px 344.26px"/><path d="M428.33 344.26a2 2 0 1 1-2-2 2 2 0 0 1 2 2z" transform-origin="426.33px 344.26px"/><path d="M434.9 344.26a2 2 0 1 1-2-2 2 2 0 0 1 2 2z" transform-origin="432.9px 344.26px"/><path d="M441.48 344.26a2 2 0 1 1-2-2 2 2 0 0 1 2 2z" transform-origin="439.48px 344.26px"/><path d="M415.17 350.24a2 2 0 1 1-2-2 2 2 0 0 1 2 2z" transform-origin="413.17px 350.24px"/><path d="M421.75 350.24a2 2 0 1 1-2-2 2 2 0 0 1 2 2z" transform-origin="419.75px 350.24px"/><path d="M428.33 350.24a2 2 0 1 1-2-2 2 2 0 0 1 2 2z" transform-origin="426.33px 350.24px"/><path d="M434.9 350.24a2 2 0 1 1-2-2 2 2 0 0 1 2 2z" transform-origin="432.9px 350.24px"/><path d="M441.48 350.24a2 2 0 1 1-2-2 2 2 0 0 1 2 2z" transform-origin="439.48px 350.24px"/></g><path class="E" d="M407.4 336.28h1.15v15.96h-1.15z" transform-origin="407.975px 344.26px"/><path class="H" d="M341.37 303.61h103.21v23.84H341.37z" transform-origin="392.975px 315.53px"/><g class="I"><path d="M345.71 307.55h58.75v2.01h-58.75z" transform-origin="375.085px 308.555px"/><path d="M345.71 311.03h58.75v2.01h-58.75z" transform-origin="375.085px 312.035px"/><path d="M345.71 314.52h58.75v2.01h-58.75z" transform-origin="375.085px 315.525px"/><path d="M345.71 318.01h58.75v2.01h-58.75z" transform-origin="375.085px 319.015px"/><path d="M345.71 321.5h58.75v2.01h-58.75z" transform-origin="375.085px 322.505px"/></g><g class="D"><path d="M415.17 309.54a2 2 0 1 1-2-2 2 2 0 0 1 2 2z" transform-origin="413.17px 309.54px"/><path d="M421.75 309.54a2 2 0 1 1-2-2 2 2 0 0 1 2 2z" transform-origin="419.75px 309.54px"/><path d="M428.33 309.54a2 2 0 1 1-2-2 2 2 0 0 1 2 2z" transform-origin="426.33px 309.54px"/><path d="M434.9 309.54a2 2 0 1 1-2-2 2 2 0 0 1 2 2z" transform-origin="432.9px 309.54px"/><path d="M441.48 309.54a2 2 0 1 1-2-2 2 2 0 0 1 2 2z" transform-origin="439.48px 309.54px"/><circle cx="413.18" cy="315.53" r="2" transform-origin="413.18px 315.53px"/><path d="M421.75 315.53a2 2 0 1 1-2-2 2 2 0 0 1 2 2z" transform-origin="419.75px 315.53px"/><circle cx="426.33" cy="315.53" r="2" transform-origin="426.33px 315.53px"/><path d="M434.9 315.53a2 2 0 1 1-2-2 2 2 0 0 1 2 2z" transform-origin="432.9px 315.53px"/><path d="M441.48 315.53a2 2 0 1 1-2-2 2 2 0 0 1 2 2z" transform-origin="439.48px 315.53px"/><circle cx="413.18" cy="321.51" r="2" transform-origin="413.18px 321.51px"/><path d="M421.75 321.51a2 2 0 1 1-2-2 2 2 0 0 1 2 2z" transform-origin="419.75px 321.51px"/><circle cx="426.33" cy="321.51" r="2" transform-origin="426.33px 321.51px"/><path d="M434.9 321.51a2 2 0 1 1-2-2 2 2 0 0 1 2 2z" transform-origin="432.9px 321.51px"/><path d="M441.48 321.51a2 2 0 1 1-2-2 2 2 0 0 1 2 2z" transform-origin="439.48px 321.51px"/></g><path class="E" d="M407.4 307.55h1.15v15.96h-1.15z" transform-origin="407.975px 315.53px"/><path class="H" d="M341.37 274.88h103.21v23.84H341.37z" transform-origin="392.975px 286.8px"/><g class="I"><path d="M345.71 278.82h58.75v2.01h-58.75z" transform-origin="375.085px 279.825px"/><path d="M345.71 282.31h58.75v2.01h-58.75z" transform-origin="375.085px 283.315px"/><path d="M345.71 285.79h58.75v2.01h-58.75z" transform-origin="375.085px 286.795px"/><path d="M345.71 289.28h58.75v2.01h-58.75z" transform-origin="375.085px 290.285px"/><path d="M345.71 292.77h58.75v2.01h-58.75z" transform-origin="375.085px 293.775px"/></g><g class="D"><circle cx="413.18" cy="280.82" r="2" transform-origin="413.18px 280.82px"/><path d="M421.75 280.82a2 2 0 1 1-2-2 2 2 0 0 1 2 2z" transform-origin="419.75px 280.82px"/><circle cx="426.33" cy="280.82" r="2" transform-origin="426.33px 280.82px"/><path d="M434.9 280.82a2 2 0 1 1-2-2 2 2 0 0 1 2 2z" transform-origin="432.9px 280.82px"/><path d="M441.48 280.82a2 2 0 1 1-2-2 2 2 0 0 1 2 2z" transform-origin="439.48px 280.82px"/><circle cx="413.18" cy="286.8" r="2" transform-origin="413.18px 286.8px"/><path d="M421.75 286.8a2 2 0 1 1-2-2 2 2 0 0 1 2 2z" transform-origin="419.75px 286.8px"/><circle cx="426.33" cy="286.8" r="2" transform-origin="426.33px 286.8px"/><path d="M434.9 286.8a2 2 0 1 1-2-2 2 2 0 0 1 2 2z" transform-origin="432.9px 286.8px"/><path d="M441.48 286.8a2 2 0 1 1-2-2 2 2 0 0 1 2 2z" transform-origin="439.48px 286.8px"/><path d="M415.17 292.79a2 2 0 1 1-2-2 2 2 0 0 1 2 2z" transform-origin="413.17px 292.79px"/><path d="M421.75 292.79a2 2 0 1 1-2-2 2 2 0 0 1 2 2z" transform-origin="419.75px 292.79px"/><path d="M428.33 292.79a2 2 0 1 1-2-2 2 2 0 0 1 2 2z" transform-origin="426.33px 292.79px"/><path d="M434.9 292.79a2 2 0 1 1-2-2 2 2 0 0 1 2 2z" transform-origin="432.9px 292.79px"/><path d="M441.48 292.79a2 2 0 1 1-2-2 2 2 0 0 1 2 2z" transform-origin="439.48px 292.79px"/></g><path class="E" d="M407.4 278.82h1.15v15.96h-1.15z" transform-origin="407.975px 286.8px"/><path class="H" d="M341.37 246.15h103.21v23.84H341.37z" transform-origin="392.975px 258.07px"/><g class="I"><path d="M345.71 250.09h58.75v2.01h-58.75z" transform-origin="375.085px 251.095px"/><path d="M345.71 253.58h58.75v2.01h-58.75z" transform-origin="375.085px 254.585px"/><path d="M345.71 257.07h58.75v2.01h-58.75z" transform-origin="375.085px 258.075px"/><path d="M345.71 260.55h58.75v2.01h-58.75z" transform-origin="375.085px 261.555px"/><path d="M345.71 264.04h58.75v2.01h-58.75z" transform-origin="375.085px 265.045px"/></g><g class="D"><path d="M415.17 252.09a2 2 0 1 1-2-2 2 2 0 0 1 2 2z" transform-origin="413.17px 252.09px"/><path d="M421.75 252.09a2 2 0 1 1-2-2 2 2 0 0 1 2 2z" transform-origin="419.75px 252.09px"/><path d="M428.33 252.09a2 2 0 1 1-2-2 2 2 0 0 1 2 2z" transform-origin="426.33px 252.09px"/><path d="M434.9 252.09a2 2 0 1 1-2-2 2 2 0 0 1 2 2z" transform-origin="432.9px 252.09px"/><path d="M441.48 252.09a2 2 0 1 1-2-2 2 2 0 0 1 2 2z" transform-origin="439.48px 252.09px"/><path d="M415.17 258.07a2 2 0 1 1-2-2 2 2 0 0 1 2 2z" transform-origin="413.17px 258.07px"/><path d="M421.75 258.07a2 2 0 1 1-2-2 2 2 0 0 1 2 2z" transform-origin="419.75px 258.07px"/><path d="M428.33 258.07a2 2 0 1 1-2-2 2 2 0 0 1 2 2z" transform-origin="426.33px 258.07px"/><path d="M434.9 258.07a2 2 0 1 1-2-2 2 2 0 0 1 2 2z" transform-origin="432.9px 258.07px"/><path d="M441.48 258.07a2 2 0 1 1-2-2 2 2 0 0 1 2 2z" transform-origin="439.48px 258.07px"/><path d="M415.17 264.06a2 2 0 1 1-2-2 2 2 0 0 1 2 2z" transform-origin="413.17px 264.06px"/><path d="M421.75 264.06a2 2 0 1 1-2-2 2 2 0 0 1 2 2z" transform-origin="419.75px 264.06px"/><path d="M428.33 264.06a2 2 0 1 1-2-2 2 2 0 0 1 2 2z" transform-origin="426.33px 264.06px"/><path d="M434.9 264.06a2 2 0 1 1-2-2 2 2 0 0 1 2 2z" transform-origin="432.9px 264.06px"/><path d="M441.48 264.06a2 2 0 1 1-2-2 2 2 0 0 1 2 2z" transform-origin="439.48px 264.06px"/></g><path class="E" d="M407.4 250.09h1.15v15.96h-1.15z" transform-origin="407.975px 258.07px"/><path class="H" d="M341.37 217.43h103.21v23.84H341.37z" transform-origin="392.975px 229.35px"/><g class="I"><path d="M345.71 221.36h58.75v2.01h-58.75z" transform-origin="375.085px 222.365px"/><path d="M345.71 224.85h58.75v2.01h-58.75z" transform-origin="375.085px 225.855px"/><path d="M345.71 228.34h58.75v2.01h-58.75z" transform-origin="375.085px 229.345px"/><path d="M345.71 231.83h58.75v2.01h-58.75z" transform-origin="375.085px 232.835px"/><path d="M345.71 235.31h58.75v2.01h-58.75z" transform-origin="375.085px 236.315px"/></g><g class="D"><path d="M415.17 223.36a2 2 0 1 1-2-2 2 2 0 0 1 2 2z" transform-origin="413.17px 223.36px"/><path d="M421.75 223.36a2 2 0 1 1-2-2 2 2 0 0 1 2 2z" transform-origin="419.75px 223.36px"/><path d="M428.33 223.36a2 2 0 1 1-2-2 2 2 0 0 1 2 2z" transform-origin="426.33px 223.36px"/><path d="M434.9 223.36a2 2 0 1 1-2-2 2 2 0 0 1 2 2z" transform-origin="432.9px 223.36px"/><path d="M441.48 223.36a2 2 0 1 1-2-2 2 2 0 0 1 2 2z" transform-origin="439.48px 223.36px"/><path d="M415.17 229.35a2 2 0 1 1-2-2 2 2 0 0 1 2 2z" transform-origin="413.17px 229.35px"/><path d="M421.75 229.35a2 2 0 1 1-2-2 2 2 0 0 1 2 2z" transform-origin="419.75px 229.35px"/><path d="M428.33 229.35a2 2 0 1 1-2-2 2 2 0 0 1 2 2z" transform-origin="426.33px 229.35px"/><path d="M434.9 229.35a2 2 0 1 1-2-2 2 2 0 0 1 2 2z" transform-origin="432.9px 229.35px"/><path d="M441.48 229.35a2 2 0 1 1-2-2 2 2 0 0 1 2 2z" transform-origin="439.48px 229.35px"/><path d="M415.17 235.33a2 2 0 1 1-2-2 2 2 0 0 1 2 2z" transform-origin="413.17px 235.33px"/><path d="M421.75 235.33a2 2 0 1 1-2-2 2 2 0 0 1 2 2z" transform-origin="419.75px 235.33px"/><path d="M428.33 235.33a2 2 0 1 1-2-2 2 2 0 0 1 2 2z" transform-origin="426.33px 235.33px"/><path d="M434.9 235.33a2 2 0 1 1-2-2 2 2 0 0 1 2 2z" transform-origin="432.9px 235.33px"/><path d="M441.48 235.33a2 2 0 1 1-2-2 2 2 0 0 1 2 2z" transform-origin="439.48px 235.33px"/></g><path class="E" d="M407.4 221.36h1.15v15.96h-1.15z" transform-origin="407.975px 229.34px"/><path class="H" d="M341.37 188.7h103.21v23.84H341.37z" transform-origin="392.975px 200.62px"/><g class="I"><path d="M345.71 192.64h58.75v2.01h-58.75z" transform-origin="375.085px 193.645px"/><path d="M345.71 196.12h58.75v2.01h-58.75z" transform-origin="375.085px 197.125px"/><path d="M345.71 199.61h58.75v2.01h-58.75z" transform-origin="375.085px 200.615px"/><path d="M345.71 203.1h58.75v2.01h-58.75z" transform-origin="375.085px 204.105px"/><path d="M345.71 206.59h58.75v2.01h-58.75z" transform-origin="375.085px 207.595px"/></g><g class="D"><path d="M415.17 194.63a2 2 0 1 1-2-2 2 2 0 0 1 2 2z" transform-origin="413.17px 194.63px"/><path d="M421.75 194.63a2 2 0 1 1-2-2 2 2 0 0 1 2 2z" transform-origin="419.75px 194.63px"/><path d="M428.33 194.63a2 2 0 1 1-2-2 2 2 0 0 1 2 2z" transform-origin="426.33px 194.63px"/><path d="M434.9 194.63a2 2 0 1 1-2-2 2 2 0 0 1 2 2z" transform-origin="432.9px 194.63px"/><path d="M441.48 194.63a2 2 0 1 1-2-2 2 2 0 0 1 2 2z" transform-origin="439.48px 194.63px"/><circle cx="413.18" cy="200.62" r="2" transform-origin="413.18px 200.62px"/><path d="M421.75 200.62a2 2 0 1 1-2-2 2 2 0 0 1 2 2z" transform-origin="419.75px 200.62px"/><circle cx="426.33" cy="200.62" r="2" transform-origin="426.33px 200.62px"/><path d="M434.9 200.62a2 2 0 1 1-2-2 2 2 0 0 1 2 2z" transform-origin="432.9px 200.62px"/><path d="M441.48 200.62a2 2 0 1 1-2-2 2 2 0 0 1 2 2z" transform-origin="439.48px 200.62px"/><path d="M415.17 206.6a2 2 0 1 1-2-2 2 2 0 0 1 2 2z" transform-origin="413.17px 206.6px"/><path d="M421.75 206.6a2 2 0 1 1-2-2 2 2 0 0 1 2 2z" transform-origin="419.75px 206.6px"/><path d="M428.33 206.6a2 2 0 1 1-2-2 2 2 0 0 1 2 2z" transform-origin="426.33px 206.6px"/><path d="M434.9 206.6a2 2 0 1 1-2-2 2 2 0 0 1 2 2z" transform-origin="432.9px 206.6px"/><path d="M441.48 206.6a2 2 0 1 1-2-2 2 2 0 0 1 2 2z" transform-origin="439.48px 206.6px"/></g><path class="E" d="M407.4 192.64h1.15v15.96h-1.15z" transform-origin="407.975px 200.62px"/><path class="H" d="M291.69 168.86h136.05v7.56H291.69z" transform-origin="359.715px 172.64px"/><path class="E" d="M277.86 384.07h15.19v15.19h-15.19z" transform-origin="285.455px 391.665px"/></g><g id="E" class="B" transform-origin="152.805px 172.641px"><g class="E"><path d="M63,226.7V212.31h2.27V226.7Z" transform-origin="64.135px 219.505px"/><path d="M70.79,216.57V226.7H68.52V212.31H70.3l8.23,10.38V212.33h2.29V226.7H78.94Z" transform-origin="74.67px 219.505px"/><path d="M94.62,214.32H89.84V226.7H87.55V214.32h-4.8v-2H94.62Z" transform-origin="88.685px 219.51px"/><path d="M106.42,224.7v2H96.55V212.31h9.69v2H98.82v4.09h6.43v1.89H98.82v4.4Z" transform-origin="101.485px 219.505px"/><path d="M108.77 226.7v-14.39H115a4 4 0 0 1 1.79.41 4.51 4.51 0 0 1 1.41 1.06 5 5 0 0 1 .92 1.5 4.66 4.66 0 0 1 .34 1.72 4.59 4.59 0 0 1-.21 1.39 4.52 4.52 0 0 1-.57 1.24 3.79 3.79 0 0 1-.89 1 3.47 3.47 0 0 1-1.15.62l3.38 5.47h-2.57l-3.12-5H111v5zm2.27-7h4a1.87 1.87 0 0 0 .88-.21 2.12 2.12 0 0 0 .68-.59 3 3 0 0 0 .4-.9 3.17 3.17 0 0 0 .16-1 2.78 2.78 0 0 0-.19-1 3.23 3.23 0 0 0-.5-.85 2.53 2.53 0 0 0-.73-.58 1.92 1.92 0 0 0-.87-.21H111z" transform-origin="114.395px 219.515px"/><path d="M124.44,216.57V226.7h-2.27V212.31H124l8.23,10.38V212.33h2.29V226.7h-1.88Z" transform-origin="128.345px 219.505px"/><path d="M142 212.31h2l5.68 14.39h-2.4l-1.52-3.91h-5.55l-1.5 3.91h-2.41zm3.31 8.8l-2.31-6.18-2.39 6.18z" transform-origin="142.99px 219.505px"/><path d="M151.4,226.7V212.31h2.27V224.7h7.72v2Z" transform-origin="156.395px 219.505px"/><path d="M176.21 215.7a3.18 3.18 0 0 0-.59-.48 5 5 0 0 0-.9-.47 6.63 6.63 0 0 0-1.14-.37 5.86 5.86 0 0 0-1.26-.14 3.39 3.39 0 0 0-2.12.53 1.74 1.74 0 0 0-.68 1.46 1.61 1.61 0 0 0 .21.86 1.89 1.89 0 0 0 .66.58 5.21 5.21 0 0 0 1.12.45q.66.19 1.56.42a17.39 17.39 0 0 1 2 .58 5.64 5.64 0 0 1 1.49.79 3.39 3.39 0 0 1 .95 1.15 3.73 3.73 0 0 1 .33 1.65 4.12 4.12 0 0 1-.41 1.89 3.6 3.6 0 0 1-1.14 1.28 4.77 4.77 0 0 1-1.67.73 8.41 8.41 0 0 1-2.05.24 10.25 10.25 0 0 1-3.17-.5 9.05 9.05 0 0 1-2.77-1.45l1-2a3.79 3.79 0 0 0 .76.59 6.5 6.5 0 0 0 1.15.6 10.9 10.9 0 0 0 1.43.47 6.49 6.49 0 0 0 1.6.19 3.87 3.87 0 0 0 2.07-.47 1.52 1.52 0 0 0 .73-1.38 1.45 1.45 0 0 0-.28-.91 2.44 2.44 0 0 0-.78-.64 7 7 0 0 0-1.23-.49l-1.66-.47a16.84 16.84 0 0 1-1.88-.6 4.69 4.69 0 0 1-1.33-.76 3 3 0 0 1-.8-1 3.51 3.51 0 0 1-.27-1.45 4.15 4.15 0 0 1 .4-1.87 3.94 3.94 0 0 1 1.11-1.38 4.77 4.77 0 0 1 1.65-.84 7.24 7.24 0 0 1 2.07-.29 7.56 7.56 0 0 1 2.69.47 8.74 8.74 0 0 1 2.17 1.15z" transform-origin="172.236px 219.525px"/><path d="M190,224.7v2h-9.87V212.31h9.69v2h-7.42v4.09h6.43v1.89h-6.43v4.4Z" transform-origin="185.065px 219.505px"/><path d="M192.3,226.7V212.31h6.27a4,4,0,0,1,1.79.41,4.51,4.51,0,0,1,1.41,1.06,5,5,0,0,1,.92,1.5A4.47,4.47,0,0,1,203,217a4.59,4.59,0,0,1-.21,1.39,4.8,4.8,0,0,1-.56,1.24,3.83,3.83,0,0,1-.9,1,3.47,3.47,0,0,1-1.15.62l3.38,5.47H201l-3.12-5h-3.33v5Zm2.27-7h4a1.84,1.84,0,0,0,.88-.21,2.12,2.12,0,0,0,.68-.59,2.8,2.8,0,0,0,.44-.86,3.18,3.18,0,0,0,.17-1,2.79,2.79,0,0,0-.2-1,3,3,0,0,0-.5-.85,2.53,2.53,0,0,0-.73-.58,1.91,1.91,0,0,0-.86-.21h-3.86Z" transform-origin="197.93px 219.515px"/><path d="M206.27,212.31l4.34,11.54,4.32-11.54h2.41l-5.76,14.39h-2l-5.77-14.39Z" transform-origin="210.575px 219.505px"/><path d="M229 224.7v2h-9.9v-14.39h9.69v2h-7.42v4.09h6.43v1.89h-6.43v4.4z" transform-origin="224.05px 219.505px"/><path d="M231.32,226.7V212.31h6.27a4,4,0,0,1,1.79.41,4.51,4.51,0,0,1,1.41,1.06,5,5,0,0,1,.92,1.5,4.66,4.66,0,0,1,.34,1.72,4.59,4.59,0,0,1-.21,1.39,4.8,4.8,0,0,1-.56,1.24,4,4,0,0,1-.9,1,3.47,3.47,0,0,1-1.15.62l3.38,5.47H240l-3.12-5h-3.33v5Zm2.27-7h4a1.87,1.87,0,0,0,.88-.21,2.12,2.12,0,0,0,.68-.59,3,3,0,0,0,.44-.86,3.17,3.17,0,0,0,.16-1,2.78,2.78,0,0,0-.19-1,3.23,3.23,0,0,0-.5-.85,2.53,2.53,0,0,0-.73-.58,1.92,1.92,0,0,0-.87-.21h-3.85Z" transform-origin="236.965px 219.515px"/><path d="M132.08,245.89v2.92H122V234.42h9.94v2.92h-6.61v2.79H131v2.7h-5.67v3.06Z" transform-origin="127.04px 241.615px"/><path d="M134.11,248.81V234.42h6.48a4.25,4.25,0,0,1,1.88.42A5.17,5.17,0,0,1,144,236a5.48,5.48,0,0,1,1,1.56,4.57,4.57,0,0,1,.35,1.76,5,5,0,0,1-.16,1.29,5.1,5.1,0,0,1-.46,1.16,4.57,4.57,0,0,1-.74,1,4.27,4.27,0,0,1-1,.74l3.16,5.35h-3.75l-2.75-4.64h-2.17v4.64Zm3.32-7.54h3a1.25,1.25,0,0,0,1-.56,2.25,2.25,0,0,0,.43-1.43,2,2,0,0,0-.49-1.42,1.4,1.4,0,0,0-1-.52h-2.94Z" transform-origin="140.13px 241.64px"/><path d="M147.69,248.81V234.42h6.48a4.25,4.25,0,0,1,1.88.42,5.17,5.17,0,0,1,1.49,1.12,5.27,5.27,0,0,1,1,1.56,4.58,4.58,0,0,1,.36,1.76,5,5,0,0,1-.17,1.29,5.1,5.1,0,0,1-.46,1.16,4.57,4.57,0,0,1-.74,1,4.27,4.27,0,0,1-1,.74l3.17,5.35h-3.75l-2.76-4.64H151v4.64Zm3.32-7.54h3a1.25,1.25,0,0,0,1-.56,2.25,2.25,0,0,0,.43-1.43,2,2,0,0,0-.49-1.42,1.4,1.4,0,0,0-1.05-.52H151Z" transform-origin="153.695px 241.62px"/><path d="M167.57 248.93a6.68 6.68 0 0 1-2.92-.63 7.21 7.21 0 0 1-2.25-1.65 7.61 7.61 0 0 1-1.45-2.34 7.46 7.46 0 0 1-.51-2.72 7.13 7.13 0 0 1 .53-2.73 7.31 7.31 0 0 1 3.78-3.93 7 7 0 0 1 2.88-.59 6.82 6.82 0 0 1 2.92.62 7.11 7.11 0 0 1 2.25 1.67 7.55 7.55 0 0 1 1.44 2.35 7.36 7.36 0 0 1 .51 2.67 7.16 7.16 0 0 1-.54 2.74 7.5 7.5 0 0 1-1.49 2.32 7.26 7.26 0 0 1-2.27 1.61 6.73 6.73 0 0 1-2.88.61zm-3.75-7.3a5.53 5.53 0 0 0 .24 1.62 4.53 4.53 0 0 0 .72 1.38 3.66 3.66 0 0 0 1.19 1 3.51 3.51 0 0 0 1.62.36 3.4 3.4 0 0 0 2.84-1.39 4.49 4.49 0 0 0 .7-1.4 5.71 5.71 0 0 0 .23-1.59 5.46 5.46 0 0 0-.24-1.61 4.15 4.15 0 0 0-.73-1.38 3.68 3.68 0 0 0-1.19-.95 3.87 3.87 0 0 0-3.26 0 3.75 3.75 0 0 0-1.18 1 4.46 4.46 0 0 0-.71 1.39 5.71 5.71 0 0 0-.23 1.57z" transform-origin="167.595px 241.635px"/><path d="M176.67,248.81V234.42h6.49a4.2,4.2,0,0,1,1.87.42,5,5,0,0,1,1.49,1.12,5.3,5.3,0,0,1,1,1.56,4.76,4.76,0,0,1,.35,1.76,5,5,0,0,1-.16,1.29,5.13,5.13,0,0,1-.47,1.16,4.27,4.27,0,0,1-.74,1,4.43,4.43,0,0,1-1,.74l3.16,5.35h-3.75l-2.76-4.64H180v4.64Zm3.33-7.54h3a1.25,1.25,0,0,0,1-.56,2.32,2.32,0,0,0,.43-1.43,2.06,2.06,0,0,0-.49-1.42,1.44,1.44,0,0,0-1.05-.52H180Z" transform-origin="182.665px 241.62px"/></g><g class="D"><path d="M82.72,113.28v22.21a15.05,15.05,0,0,1,6.54-5.12,13.72,13.72,0,0,1,5.22-.91q10.26,0,15.15,7.18,4.22,6.2,4.22,17.51v22.29q0,11.48-7.27,18.83a23.45,23.45,0,0,1-17.5,7.1,22,22,0,0,1-17-7.43,24.71,24.71,0,0,1-6.52-17.34v-2.48L80.49,174l.33,3.55q.59,6.19,5,8.26a6.21,6.21,0,0,0,2.81.66q9.57,0,9.57-10V151.09a9.63,9.63,0,0,0-3.32-7.51,6.35,6.35,0,0,0-4.4-1.4,6.72,6.72,0,0,0-6.14,3.22,11.45,11.45,0,0,0-1.66,5.94v2.81H67.12V97.59h45.66v15.69Z" transform-origin="89.7013px 149.985px"/><path d="M176.43,177.6a24.76,24.76,0,0,1-42.23,17.46A23.78,23.78,0,0,1,127,177.6V121.12a24.75,24.75,0,0,1,42.27-17.5,24,24,0,0,1,7.18,17.5Zm-16.18-56.81a9,9,0,0,0-9-9,8.55,8.55,0,0,0-6.32,2.64,8.77,8.77,0,0,0-2.6,6.36v56.56a8.75,8.75,0,0,0,2.6,6.36,8.55,8.55,0,0,0,6.32,2.64,9,9,0,0,0,9-9Z" transform-origin="151.725px 149.313px"/><path d="M239.35,177.6a24.73,24.73,0,0,1-49.46,0V121.12a24.76,24.76,0,0,1,42.28-17.5,24,24,0,0,1,7.18,17.5Zm-16.19-56.81a9,9,0,0,0-9-9,8.53,8.53,0,0,0-6.32,2.64,8.73,8.73,0,0,0-2.6,6.36v56.56a8.71,8.71,0,0,0,2.6,6.36,8.53,8.53,0,0,0,6.32,2.64,9,9,0,0,0,9-9Z" transform-origin="214.621px 149.334px"/></g></g><g id="F" class="B" transform-origin="56.74px 367.02px"><path class="H" d="M43.46 353.74h26.56v26.56H43.46z" transform-origin="56.74px 367.02px"/><circle cx="56.74" cy="367.01" r="8.87" class="I" transform-origin="56.74px 367.01px"/><g class="E"><path d="M53.12 363.43h2v7.32h-2z" transform-origin="54.12px 367.09px"/><path d="M58.68 363.43h2v7.32h-2z" transform-origin="59.68px 367.09px"/></g></g><g id="G" class="B E" transform-origin="250px 421.59px"><path d="M36.85 421.59l53.29-.24 53.29-.09 106.57-.17 106.57.17 53.29.09 53.29.24-53.29.25-53.29.09-106.57.16-106.57-.17-53.29-.09-53.29-.24z" transform-origin="250px 421.59px"/></g><g id="H" class="B" transform-origin="188.222px 382.285px"><path d="M128.08 396.52c1 2.12-2.84 17.31-4 20.43s-5.39 20.53-7.43 21.28-11.93.54-13.33 0 0-3.51 1.61-4.55 3.54-2.63 3.54-2.63-2.89-26.89-2.35-29.9 19.36-10.32 21.96-4.63z" class="D" transform-origin="115.495px 416.565px"/><g><path d="M128.08 396.52c1 2.12-2.84 17.31-4 20.43s-5.39 20.53-7.43 21.28-11.93.54-13.33 0 0-3.51 1.61-4.55 3.54-2.63 3.54-2.63-2.89-26.89-2.35-29.9 19.36-10.32 21.96-4.63z" class="C" transform-origin="115.495px 416.565px"/></g><g><path d="M107.4 437.06a3.9 3.9 0 0 1 .65-1.49 5.6 5.6 0 0 1 1.13-1.15 3.68 3.68 0 0 1 1.42-.69.07.07 0 0 1 .07.12l-.55.47-.52.53a6.07 6.07 0 0 0-.85 1.16l-.7 1.27c-.22.44-.33.91-.5 1.37a.1.1 0 0 1-.2 0 3.67 3.67 0 0 1 .05-1.59z" class="C" transform-origin="108.992px 436.237px"/></g><g><path d="M104.51 435.48a5 5 0 0 1 2.41-2.11c.07 0 .14.05.08.1a8.13 8.13 0 0 0-1.92 2.17 3.66 3.66 0 0 0-.38 2.85s0 .06-.07 0a2.92 2.92 0 0 1-.12-3.01z" class="C" transform-origin="105.586px 435.943px"/></g><g><path d="M106.94 416l13.59 12.86 3.51-11.88c1.2-3.12 5-18.31 4-20.43-2.61-5.69-21.48 1.62-22 4.63-.21 1.39.29 8.09.9 14.82z" class="C" transform-origin="117.099px 411.652px"/></g><path d="M179.41 411.72c.55.52 5.9-4.54 6.72-6.91s-2.6-9.06-2-10.2 3.55-2.05 5.06-.3 5.38 11.34 4.58 15.44-9.03 13.25-9.9 13.25-4.46-11.28-4.46-11.28z" class="D" transform-origin="186.644px 408.166px"/><g><path d="M179.41 411.72s3.61 11.2 4.46 11.25c.63 0 5.21-4.86 7.95-9.09l-7.49-6.31c-1.89 2.23-4.54 4.51-4.92 4.15z" class="C" transform-origin="185.615px 415.27px"/></g><path d="M149.19 365.46h-44.4s-3.3 29.24-2.94 33.11 19.87 32.54 25.92 36.24 40.83 3.88 49.29 2c6.58-1.45 12.07-9.85 9.34-22.78-1.19-5.66-16.61-19.14-18.76-21.72s-18.45-26.85-18.45-26.85z" class="O" transform-origin="144.47px 401.722px"/><path d="M101.85 398.57c.36 3.87 19.87 32.54 25.93 36.24s40.82 3.88 49.29 2c6.57-1.45 12.07-9.85 9.33-22.79-1.19-5.65-16.6-19.13-18.75-21.71-1.32-1.58-7.94-11.3-12.88-18.6l-5.58-8.27h-44.4l-1.61 15.15c-.78 7.81-1.51 16.05-1.33 17.98z" class="D" transform-origin="144.471px 401.712px"/><g><path d="M103.18 380.61c23.86 7.36 45.08-3.11 51.59-6.88l-5.58-8.27h-44.4l-1.61 15.15z" class="C" transform-origin="128.975px 374.315px"/></g><path d="M177.91 412.64s-12.22-7.67-20.79-6.29-11.6 19-7.49 28.89c0 0-7.82 2.32-7.82 6.1 0 2.15 4.47 2.84 10.91 2.68s19.26-.28 19.54-1.9a7.68 7.68 0 0 0-.84-3.85s11.57-1.3 13.84-9-5.42-15.34-7.35-16.63z" class="D" transform-origin="163.743px 425.113px"/><g><path d="M161.22 436.11a31.06 31.06 0 0 0 10.29 2.28c.07 0 .09.12 0 .13a16.82 16.82 0 0 1-10.33-2.33c-.04-.02-.01-.11.04-.08z" class="C" transform-origin="166.366px 437.353px"/></g><g><path d="M146.84 444.07a6 6 0 0 1 2.66-3.44 9.23 9.23 0 0 1 2.26-1.14c.92-.31 1.86-.48 2.79-.77.07 0 .13.09 0 .12a15 15 0 0 0-2.3 1.06 22.45 22.45 0 0 0-2.17 1.28 13.51 13.51 0 0 0-3 3c-.03.13-.28.06-.24-.11z" class="C" transform-origin="150.731px 441.484px"/></g><g><path d="M148.42 438a.06.06 0 0 1 0 .12 9.84 9.84 0 0 0-5.26 5.22c0 .1-.22.1-.2 0a6.27 6.27 0 0 1 5.46-5.34z" class="C" transform-origin="145.719px 440.708px"/></g><g><path d="M144.61 437.45v.05a25.61 25.61 0 0 1 4.81-2.21c.2.35.41.7.64 1 0 .07.15 0 .11-.06a22.3 22.3 0 0 1-2.14-9.88 48.93 48.93 0 0 1 .32-5.41 0 0 0 0 1 0 0 26.51 26.51 0 0 1 2.9-9 10.84 10.84 0 0 1 3.77-4.34 10.46 10.46 0 0 1 5.65-1 26 26 0 0 1 5.9 1.09 45.74 45.74 0 0 1 5.72 2 31.69 31.69 0 0 0-11.56-3.87 10.58 10.58 0 0 0-6.16 1 11.77 11.77 0 0 0-4.2 4.64 27.93 27.93 0 0 0-3.07 11.88v1.42h0v1.88a18.69 18.69 0 0 0 2.11 8.53 9.08 9.08 0 0 0-4.8 2.28z" class="C" transform-origin="158.45px 421.61px"/></g><path d="M142.43 400.29c1 2.11-2.84 17.3-4 20.42S133 441.24 131 442s-11.93.54-13.33 0 0-3.51 1.61-4.55 3.53-2.63 3.53-2.63-2.88-26.89-2.35-29.9 19.37-10.33 21.97-4.63z" class="D" transform-origin="129.845px 420.335px"/><g><path d="M135.77 429.15l3-8.13c0-.11.21-.06.17.05l-1.89 6.68.28-.46a10.87 10.87 0 0 0 1.57-2.77.09.09 0 0 1 .18.05 6.42 6.42 0 0 1-.59 1.34l-.8 1.47-1.1 1.87v.13a78.59 78.59 0 0 1-3 8.13.13.13 0 0 1-.24-.07 85.77 85.77 0 0 1 2.42-8.29z" class="C" transform-origin="136.217px 429.265px"/></g><g><path d="M120.05 409.2c0-.05.11-.07.12 0l.62 6.15.7 6.38c.47 4.23 1.18 8.45 1.52 12.69 0 .18-.31.2-.36 0A77.9 77.9 0 0 1 120.6 422c-.22-2.08-.35-4.16-.45-6.24a59.07 59.07 0 0 1-.1-6.56z" class="C" transform-origin="121.506px 421.859px"/></g><g><path d="M121.27 440.61a3.73 3.73 0 0 1 .64-1.49 5.4 5.4 0 0 1 1.14-1.15 3.55 3.55 0 0 1 1.42-.69.07.07 0 0 1 .06.12l-.55.47-.52.53a6.91 6.91 0 0 0-.85 1.16l-.69 1.27c-.21.44-.34.91-.51 1.37a.1.1 0 0 1-.19 0 3.52 3.52 0 0 1 .05-1.59z" class="C" transform-origin="122.852px 439.774px"/></g><g><path d="M118.37 439a5 5 0 0 1 2.42-2.11c.06 0 .13.05.07.1a7.92 7.92 0 0 0-1.91 2.17 3.57 3.57 0 0 0-.38 2.85s0 .06-.07 0a2.92 2.92 0 0 1-.13-3.01z" class="C" transform-origin="119.449px 439.463px"/></g><path d="M121.78 324.81c.48-1.76-3.9-8-5.57-10.05s-10.86-5.22-13.8-3.61c-1.15.63-3.29 5.05-6.18 8.88-4.48 5.94-9.7 12.17-7.8 13.84 4.6 4.07 15.11-2.35 18.52-4.5s6.52-4.78 7.35-4.69c1.1.12 3.4 1.86 4.33 2a3.23 3.23 0 0 0 3.15-1.87z" class="D" transform-origin="104.923px 322.951px"/><g><path d="M121.78 324.81c.48-1.76-3.9-8-5.57-10.05s-10.86-5.22-13.8-3.61c-1.15.63-3.29 5.05-6.18 8.88-4.48 5.94-9.7 12.17-7.8 13.84 4.6 4.07 15.11-2.35 18.52-4.5s6.52-4.78 7.35-4.69c1.1.12 3.4 1.86 4.33 2a3.23 3.23 0 0 0 3.15-1.87z" class="C" transform-origin="104.923px 322.951px"/></g><g class="D"><path d="M143 318.59c10.73 6.42 15.49 23.48 15.78 26.21.24 2.22 5.35 10.1 4.44 18.57-.59 5.44-10.37 12.67-18.33 12.6-1.46 0-13.85 4.48-24.32 3.76s-18.39-8.15-18.7-8.78-8.87-1.85-9.37-10.6c-.85-14 13.4-37.76 17.47-41 6.75-5.35 25.69-5.12 33.03-.76z" transform-origin="127.896px 347.567px"/><path d="M137.9,326c-.2-1.9,5.37-7.61,7.45-9.5s12.14-3.61,14.92-1.45c1.09.85,2.58,5.78,4.94,10.24,3.65,6.91,8,14.24,5.8,15.66-5.46,3.46-15.3-4.94-18.48-7.75s-6-6-6.85-6.08c-1.16-.06-3.84,1.36-4.81,1.31A3.41,3.41,0,0,1,137.9,326Z" transform-origin="154.75px 327.909px"/></g><g><path d="M137.9,326c-.2-1.9,5.37-7.61,7.45-9.5s12.14-3.61,14.92-1.45c1.09.85,2.58,5.78,4.94,10.24,3.65,6.91,8,14.24,5.8,15.66-5.46,3.46-15.3-4.94-18.48-7.75s-6-6-6.85-6.08c-1.16-.06-3.84,1.36-4.81,1.31A3.41,3.41,0,0,1,137.9,326Z" class="C" transform-origin="154.75px 327.909px"/></g><g><path d="M118.3 349.93c6.58.06 9.58 7.11 10.37 8.94s4.86 6 5 10.43-8.23 9.3-17 7.75-13.4-6.49-13.35-10.95c0-3.59 3.42-6.7 3.8-7.64s5.19-8.59 11.18-8.53z" class="C" transform-origin="118.496px 363.637px"/></g><g><path d="M134.48 362.31a15.06 15.06 0 0 1 2.21 3.31 14 14 0 0 1 1.29 3.82 6.9 6.9 0 0 1-.43 4.1 4.83 4.83 0 0 1-1.28 1.65 5.75 5.75 0 0 1-1.79.92 5.67 5.67 0 0 0 2.35-2.87 7.45 7.45 0 0 0 .16-3.64 20.22 20.22 0 0 0-1-3.67l-1.51-3.62z" class="C" transform-origin="136.298px 369.21px"/></g><g><path d="M104.33 359.68l-1.61 2.1a13 13 0 0 0-1.27 2.18 7 7 0 0 0-.58 2.36 7.36 7.36 0 0 0 .47 2.51 4.41 4.41 0 0 1-1.25-2.46 5.51 5.51 0 0 1 .45-2.81 8.3 8.3 0 0 1 3.79-3.88z" class="C" transform-origin="102.196px 364.255px"/></g><path d="M207.14 453.86c-10.77 0-22.66-.19-34.61-.41l-14.06-.2c-15.53 0-20-20-24.32-39.26l-1.83-8c-1.24-5.17-2.25-10.38-3.24-15.43-3-15.61-5.67-29.08-12.55-29.82-9.09-1-17.18 12.62-20.13 33.83l-2-.27c3.11-22.36 12.08-36.66 22.32-35.55 8.35.89 11.11 15 14.3 31.43l3.22 15.34 1.85 8.06c4.34 19.38 8.44 37.69 22.36 37.69l14.1.2 47.7.29c25.42-.5 28.43-2.5 28.74-3.11 0-4.16-26.84-9.16-36.94-11.05s-10.6-2-10.49-3.23 1.35-1.13 3.25-1.13h41.94c13.15 0 17.39-18.92 19.93-30.23a42.34 42.34 0 0 1 1.93-7.13c2.94-6.12 10.38-5.23 10.69-5.19l-.26 2c-.26 0-6.32-.74-8.63 4.07a44 44 0 0 0-1.78 6.7c-2.67 11.89-7.12 31.79-21.88 31.79h-36.4l2.09.39c24.42 4.56 38.56 8.17 38.56 13.1a1.94 1.94 0 0 1-.65 1.42c-2.97 2.89-20.64 3.7-43.21 3.7z" class="E" transform-origin="186.85px 406.275px"/><g class="I"><path d="M89.27 392.73h12.28v7.37H89.27z" transform-origin="95.41px 396.415px" transform="rotate(3.43)"/></g><g class="H"><path d="M91.87 390.4h7.66v2.34h-7.66z" transform-origin="95.7px 391.57px" transform="rotate(3.43)"/></g><g class="D"><path d="M91.51 399.92h1.45v5.62h-1.45z" transform-origin="92.235px 402.73px" transform="rotate(3.43)"/></g><g class="D"><path d="M97.06 400.25h1.44v5.62h-1.44z" transform-origin="97.78px 403.06px" transform="rotate(3.43)"/></g><g class="I"><path d="M279.59 388.98h12.28v5.37h-12.28z" transform-origin="285.73px 391.665px" transform="rotate(270)"/></g><g class="H"><path d="M277.05 389.5h7.66v4.34h-7.66z" transform-origin="280.88px 391.67px" transform="rotate(270)"/></g><path d="M110,360.6s2.61,3,3.62,2.38,3.54-6.58,3.54-6.58.61,7.56,2.56,7.77,5.29-2.78,5.29-2.78l-7.89-5.47Z" class="D" transform-origin="117.505px 360.05px"/><g><path d="M110,360.6s2.61,3,3.62,2.38,3.54-6.58,3.54-6.58.61,7.56,2.56,7.77,5.29-2.78,5.29-2.78l-7.89-5.47Z" class="C" transform-origin="117.505px 360.05px"/></g><g><path d="M148.65 351.21a18.76 18.76 0 0 0 .8-7.54 13.36 13.36 0 0 0-.91-3.83 9.38 9.38 0 0 0-1-1.79 8.76 8.76 0 0 0-1.34-1.58 7.2 7.2 0 0 0-.81-.65c-.29-.2-.59-.36-.88-.54l-.45-.25-.47-.19a8.56 8.56 0 0 0-1-.36 10.59 10.59 0 0 0-4-.38 13.75 13.75 0 0 0-7.08 2.79 20 20 0 0 1 7.13-1.31 10.52 10.52 0 0 1 3.37.6c.27.08.52.23.78.33l.38.17.36.23.71.44a6 6 0 0 1 .63.52 8.14 8.14 0 0 1 1.94 2.69 14.77 14.77 0 0 1 1.09 3.33 35.93 35.93 0 0 1 .75 7.32z" class="C" transform-origin="140.525px 342.631px"/></g><g><path d="M99.87 346.1a28.54 28.54 0 0 1 1-6.15 9.2 9.2 0 0 1 3-4.76 6.73 6.73 0 0 1 1.18-.69 4.66 4.66 0 0 1 1.27-.35 10.83 10.83 0 0 1 2.89.06 40.09 40.09 0 0 1 6.06 1.57 15.32 15.32 0 0 0-2.69-1.82l-1.48-.7a16.12 16.12 0 0 0-1.57-.54 9.22 9.22 0 0 0-3.42-.38 5.58 5.58 0 0 0-1.8.44 7.54 7.54 0 0 0-1.56.9 7.93 7.93 0 0 0-2.26 2.71 10.63 10.63 0 0 0-1 3.23 14.87 14.87 0 0 0 .38 6.48z" class="C" transform-origin="107.283px 339.206px"/></g><g class="E"><path d="M132.36 348.07c0-.11.26.15.25.28-.24 3 0 6.5 3 7.63.09 0 .07.19 0 .17-3.67-.63-4-5.26-3.25-8.08z" transform-origin="133.852px 352.098px"/><path d="M135.46 345.05c5.34-.14 5.33 9.61.38 9.74s-4.84-9.63-.38-9.74z" transform-origin="135.815px 349.92px"/><path d="M111.73 345.7c0-.11-.27.12-.28.25-.18 3-1 6.43-4 7.14-.09 0-.1.17 0 .17 3.67-.12 4.64-4.66 4.28-7.56z" transform-origin="109.589px 349.466px"/><path d="M109.09 342.28c-5.26-.88-6.62 8.78-1.74 9.59s6.16-8.87 1.74-9.59z" transform-origin="108.064px 347.071px"/><path d="M116.91 356.12c1 .31 7.54-1.77 7-3.77-.55-2.16-9.81-2.67-11-1.27s3.01 4.72 4 5.04z" transform-origin="118.321px 353.224px"/><path d="M125.13 361.29a22.13 22.13 0 0 1-3.35 2.09 4.46 4.46 0 0 1-1.82.52c-.38.07-.7-.44-.92-.93a14.25 14.25 0 0 1-.83-3.19c-.2-1.09-.31-2.21-.43-3.3l-.31-3-.91 2.95-.94 2.73a20.82 20.82 0 0 1-1.18 2.64 3.85 3.85 0 0 1-.39.6 1.77 1.77 0 0 1-.46.48.83.83 0 0 1-.55.06 3.15 3.15 0 0 1-.72-.3 10.27 10.27 0 0 1-2.37-2.13 7.52 7.52 0 0 0 2 2.46 2.86 2.86 0 0 0 .87.46 2.71 2.71 0 0 0 .59.08 1.4 1.4 0 0 0 .64-.15 2.72 2.72 0 0 0 .74-.6 5.94 5.94 0 0 0 .5-.65 16.62 16.62 0 0 0 1.43-2.69c.4-.91.74-1.83 1-2.76l-1.23-.09a29.65 29.65 0 0 0 .46 3.37 16.5 16.5 0 0 0 .42 1.68 8.7 8.7 0 0 0 .67 1.67 3.5 3.5 0 0 0 .59.82 1.71 1.71 0 0 0 .53.37 1.31 1.31 0 0 0 .41.12 1.51 1.51 0 0 0 .37 0 4.89 4.89 0 0 0 2.16-.77 13.91 13.91 0 0 0 3.03-2.54z" transform-origin="117.54px 359.046px"/></g></g><g id="I" class="B E" transform-origin="92.145px 395.465px"><path d="M74.9,395.89a47.15,47.15,0,0,1,11.86.81,47.23,47.23,0,0,1-11.86-.81Z" transform-origin="80.83px 396.295px"/><path d="M103.69,402.22a42.64,42.64,0,0,1,5.47,2.34,41.43,41.43,0,0,1,5.13,3,47.1,47.1,0,0,1-10.6-5.35Z" transform-origin="108.99px 404.885px"/><path d="M81.25 416a46.89 46.89 0 0 1 7.14-9.5 41.37 41.37 0 0 1-3.27 5 41.53 41.53 0 0 1-3.87 4.5z" transform-origin="84.82px 411.25px"/><path d="M70 384.07l4.56 1.63 4.48 1.83 4.41 2 4.34 2.17-4.56-1.64-4.48-1.83-4.41-2-4.34-2.16z" transform-origin="78.895px 387.885px"/><path d="M105.13,392.93a26.48,26.48,0,0,1,4.34-1.72,25.63,25.63,0,0,1,4.55-1,28.44,28.44,0,0,1-8.89,2.73Z" transform-origin="109.575px 391.575px"/><path d="M90.75 387.87l-2.29-4-2.12-4.07-2-4.14-1.79-4.23 2.3 4 2.12 4.06 2 4.14 1.78 4.24z" transform-origin="86.65px 379.65px"/><path d="M111 419.5c-.89-1-1.72-2.09-2.53-3.16l-2.37-3.28-2.22-3.38-2.06-3.49c.89 1 1.72 2.09 2.53 3.16l2.37 3.28 2.22 3.38 2.06 3.49z" transform-origin="106.41px 412.845px"/></g><g id="J" class="B" transform-origin="352.03px 140.795px"><path d="M379.94 168.86h-82.66l-6.4-56.14h82.66l6.4 56.14z" fill="#a6a6a6" transform-origin="335.41px 140.79px"/><path d="M375.44 165.1h-74.51l-5.54-48.61h74.51l5.54 48.61z" fill="#fff" transform-origin="335.415px 140.795px"/><g class="D"><path d="M329.42 142.06l-1.19 1.42-11.72-10.12 1.19-1.42 11.72 10.12z" transform-origin="322.965px 137.71px"/><path d="M326.4 131.94l1.64 1.42-8.51 10.12-1.64-1.42 8.51-10.12z" transform-origin="322.965px 137.71px"/><path d="M354.48 142.06l-1.19 1.42-11.72-10.12 1.19-1.42 11.72 10.12z" transform-origin="348.025px 137.71px"/><path d="M351.46 131.94l1.64 1.42-8.51 10.12-1.64-1.42 8.51-10.12z" transform-origin="348.025px 137.71px"/><path d="M315.01 151.79l-.32-2h45.43l.32 2h-45.43z" transform-origin="337.565px 150.79px"/></g><path d="M297.86 165.1H404.2v3.77H297.86z" fill="#a6a6a6" transform-origin="351.03px 166.985px"/><path class="O" d="M320.96 165.1h92.22v3.77h-92.22z" transform-origin="367.07px 166.985px"/><path class="E" d="M370.17 118.85l-.27-2.36h-74.51l.27 2.36h74.51z" transform-origin="332.78px 117.67px"/><path d="M301.66 117.67a.63.63 0 0 0 .59.58.48.48 0 0 0 .46-.58.63.63 0 0 0-.59-.59.49.49 0 0 0-.46.59z" class="O" transform-origin="302.185px 117.665px"/><path d="M299.5 117.67a.64.64 0 0 0 .6.58.49.49 0 0 0 .46-.58.64.64 0 0 0-.59-.59.5.5 0 0 0-.47.59z" fill="#fff" transform-origin="300.03px 117.665px"/><path d="M297.35 117.67a.63.63 0 0 0 .59.58.48.48 0 0 0 .46-.58.63.63 0 0 0-.59-.59.49.49 0 0 0-.46.59z" class="D" transform-origin="297.875px 117.665px"/></g></svg>